<?xml version="1.0" encoding="UTF-8"?>
<svg width="734px" height="389px" viewBox="0 0 734 389" version="1.1" xmlns="http://www.w3.org/2000/svg" xmlns:xlink="http://www.w3.org/1999/xlink">
    <title>Artboard</title>
    <g id="Artboard" stroke="none" stroke-width="1" fill="none" fill-rule="evenodd">
        <path d="M367.501302,100 C314.0849,100 265.606695,110.804735 230.500172,128.225677 C195.622847,145.534613 174,169.345144 174,195.5 C174,221.657461 195.622847,245.467992 230.497567,262.774323 C265.606695,280.19787 314.0849,291 367.501302,291 C420.917705,291 469.393305,280.19787 504.502433,262.774323 C539.377153,245.465387 561,221.657461 561,195.5 C561,169.345144 539.377153,145.534613 504.502433,128.225677 C469.393305,110.804735 420.917705,100.002605 367.501302,100 Z M367,97 C420.848561,97 469.750116,107.873635 505.195399,125.411336 C540.875384,143.063443 563,167.50702 563,194.4987 C563,221.49298 540.875384,245.933957 505.195399,263.588664 C469.750116,281.123765 420.845953,292 367,292 C313.151439,292 264.249884,281.123765 228.801993,263.588664 C193.122008,245.933957 171,221.49298 171,194.4987 C171,167.50442 193.122008,143.063443 228.801993,125.411336 C264.249884,107.873635 313.151439,97 367,97 Z M465,230 L465,157 L487.047574,157 L487.047574,186.197956 L508.562839,157 L534.250047,157 L505.780671,192.350273 L535,230 L507.705376,230 L487.047574,200.173527 L487.047574,230 L465,230 Z M366,230 L376.895509,157 L398.89847,157 L411.5,199.75707 L424.104146,157 L446.104491,157 L457,230 L435.852665,230 L430.619472,190.163237 L418.763672,230 L404.236328,230 L392.383145,190.163237 L387.149951,230 L366,230 Z M359,157 L359,231.975935 L336.951577,231.975935 L336.951577,174.99349 L323.034952,174.99349 L323.034952,204.556659 C323.034952,213.242448 321.760507,220.957317 315.17063,227.425736 C308.604354,233.867915 294.635283,233.70522 286,231.975935 L286,213.982445 C287.09875,214.297338 289.477189,214.748684 291.247252,214.732939 C300.816079,214.638472 300.986529,205.915946 300.986529,198.345402 L300.986529,157 L359,157 Z M211,230 L211,157 L232.888379,157 L232.888379,183.280204 L257.111621,183.280204 L257.111621,157 L279,157 L279,230 L257.111621,230 L257.111621,200.799489 L232.888379,200.799489 L232.888379,230 L211,230 Z M366.5,87 C481.337229,87 575,135.290924 575,194.5 C575,253.709076 481.337229,302 366.5,302 C251.660165,302 158,253.709076 158,194.5 C158,135.290924 251.660165,87 366.5,87 Z M366.501302,77 C488.498927,77 588,129.784351 588,194.5 C588,259.215649 488.498927,312 366.501302,312 C244.501073,312 145,259.215649 145,194.5 C145,129.784351 244.501073,77 366.501302,77 L366.501302,77 Z" id="nlmk_" fill="#005093"></path>
    </g>
</svg>