<svg xmlns="http://www.w3.org/2000/svg" viewBox="0 0 306.582 72.115">
  <title>Ресурс 1</title>
  <g id="ac035344-4622-4c53-a9d5-e7af8375390b" data-name="Слой 2">
    <g id="b872704a-a120-4272-99c9-fc5f4f236cba" data-name="Layer 1">
      <g id="adbc135f-435c-4759-82c1-b878d7020457" data-name="Logo">
        <path d="M76.793,65.161a29.352,29.352,0,1,1,29.585-43.1h7.431a36.051,36.051,0,0,0-69.27,13.432,24.686,24.686,0,0,0-17.2-12.226L42.5.853H6.783v6.7H29.872L14.879,29.647l8.186-.062A17.935,17.935,0,0,1,40.98,47.5c0,9.878-8.382,17.914-18.685,17.914A18.811,18.811,0,0,1,5.84,55.992L0,59.279A25.521,25.521,0,0,0,22.3,72.115c12.991,0,23.727-9.512,25.206-21.73A36.142,36.142,0,0,0,76.793,71.913Z" fill="#fab82e"/>
        <path d="M54.209,48.94a29.305,29.305,0,0,1,.576-26.883H47.371a35.845,35.845,0,0,0-2.832,13.432,24.688,24.688,0,0,0-17.2-12.227l.816-1.205H20.03l-5.152,7.59,8.187-.062A17.934,17.934,0,0,1,40.979,47.5c0,.486-.036.964-.075,1.44Z" fill="#ed7817"/>
        <path d="M22.3,65.414A18.813,18.813,0,0,1,5.84,55.992L0,59.279A25.523,25.523,0,0,0,22.3,72.115c12.991,0,23.727-9.512,25.205-21.73A36.144,36.144,0,0,0,76.793,71.913V65.161A29.435,29.435,0,0,1,54.209,48.94H40.9C40.134,58.145,32.091,65.414,22.3,65.414Z" fill="#e32112"/>
        <g>
          <rect x="93.443" y="38.707" width="33.3" height="6.66" fill="#fab82e"/>
          <rect x="93.443" y="52.027" width="33.3" height="6.66" fill="#ed7817"/>
          <rect x="93.443" y="65.348" width="33.3" height="6.66" fill="#e32112"/>
          <path d="M256.149,45.374l5.26,13.307H250.874Zm-5.1-6.663-12.784,33.3H245.9l2.5-6.676,15.5.007,2.5,6.669H274l-13.527-33.3Z" fill="#000002"/>
          <polygon points="140.06 38.711 140.06 72.012 167.382 72.012 167.382 65.356 146.739 65.344 146.739 58.688 167.382 58.688 167.382 52.015 146.739 52.015 146.739 45.376 167.382 45.354 167.382 38.711 140.06 38.711" fill="#000002"/>
          <g>
            <path d="M278.611,71.985h18.037c5.378,0,9.934-3.656,9.934-9.884a7.227,7.227,0,0,0-4.058-6.753c3.558-2.07,4.058-4.186,4.058-6.752a10.007,10.007,0,0,0-9.934-9.885H278.611v6.772h17.726a3.276,3.276,0,1,1,0,6.552h-14.4v6.626h14.4a3.276,3.276,0,1,1,0,6.552H278.611Z" fill="#000002"/>
            <path d="M229.053,38.711h-18.37v33.3h6.664V58.661h11.706a9.975,9.975,0,0,0,0-19.95m-.311,13.324h-11.4V45.483h11.405a3.276,3.276,0,1,1,0,6.552" fill="#000002"/>
            <path d="M199.48,55.348c3.557-2.07,4.058-4.186,4.058-6.752a10.007,10.007,0,0,0-9.934-9.885H175.4V71.985h18.536c5.378,0,9.934-3.656,9.934-9.884a7.579,7.579,0,0,0-4.387-6.753m-17.429-9.865h11.238a3.276,3.276,0,1,1,0,6.552H182.051Zm11.571,19.73H182.051V58.661h11.571a3.276,3.276,0,0,1,0,6.552" fill="#000002"/>
          </g>
        </g>
        <g>
          <path d="M65.95,31.839H64.162V24.055a.814.814,0,0,1,.056-.377l-.028-.028a.854.854,0,0,1-.378.056H61.05a.783.783,0,0,1-.363-.056l-.028.028a1.062,1.062,0,0,1,.056.377v5.213c0,1.817-.741,2.641-2.348,2.641a9.176,9.176,0,0,1-.992-.056V30.19a7.31,7.31,0,0,0,.769.028c.545,0,.782-.293.782-.992V22.057H65.95Z" fill="#ed7817"/>
          <path d="M73.135,23.692H69.178a.714.714,0,0,1-.363-.07l-.028.028a1.157,1.157,0,0,1,.056.391v1.384a1.153,1.153,0,0,1-.056.391l.028.028a.747.747,0,0,1,.363-.056h3.538v1.621H69.178a.727.727,0,0,1-.363-.069l-.028.028a1.148,1.148,0,0,1,.056.391v2.1a1.153,1.153,0,0,1-.056.391l.028.028a.714.714,0,0,1,.363-.07h4.013v1.635H67.054V22.057h6.081Z" fill="#ed7817"/>
          <path d="M81.6,23.72h-2.56a.749.749,0,0,1-.364-.056l-.028.028a1.15,1.15,0,0,1,.042.377v7.77H76.9v-7.77a1.062,1.062,0,0,1,.056-.377l-.028-.028a.818.818,0,0,1-.363.056H73.99V22.057H81.6Z" fill="#ed7817"/>
        </g>
      </g>
    </g>
  </g>
</svg>
